# xmcd
#
# Track frame offsets: 
#        151
#        9703
#        23233
#        36906
#        46063
#        59150
#        71588
#        85471
#        97593
#        109559
#        122356
#        135769
#        148494
#        163311
#        177980
#        191535
#        205306
#        219272
#
# Disc length: 3100 seconds
#
# Revision: 0
# Processed by: cddbd v1.4PL0 Copyright (c) Steve Scherf et al.
# Submitted via: ExactAudioCopy v0.90b4
#
DISCID=fc0c1a12
DTITLE=Lonnie Johnson - The Best Of
DYEAR=1900
DGENRE=Acoustic
TTITLE0=Blues Stay Away From Me
TTITLE1=Careless Love
TTITLE2=Backwater Blues
TTITLE3=Trouble Ain't Nothing But The Blues
TTITLE4=Little Rocking Chair
TTITLE5=Nothing But I Trouble
TTITLE6=Tomorrow Night
TTITLE7=Working Man's Blues
TTITLE8=Jelly Roll Baker
TTITLE9=Love Is The Answer
TTITLE10=Keep What You Got
TTITLE11=Flood Water Blues
TTITLE12=Racketeer's Blues
TTITLE13=I'm Nuts about That Girl
TTITLE14=Trust Your Husband
TTITLE15=Four-O-Three Blues
TTITLE16=She's Only A Woman
TTITLE17=Don't Be No Fool
EXTD=
EXTT0=
EXTT1=
EXTT2=
EXTT3=
EXTT4=
EXTT5=
EXTT6=
EXTT7=
EXTT8=
EXTT9=
EXTT10=
EXTT11=
EXTT12=
EXTT13=
EXTT14=
EXTT15=
EXTT16=
EXTT17=
PLAYORDER=
